<?xml version="1.0" encoding="utf-8"?>
<!-- Generator: Adobe Illustrator 28.1.0, SVG Export Plug-In . SVG Version: 6.00 Build 0)  -->
<svg version="1.1" xmlns="http://www.w3.org/2000/svg" xmlns:xlink="http://www.w3.org/1999/xlink" x="0px" y="0px"
	 viewBox="0 0 1080 1080" style="enable-background:new 0 0 1080 1080;" xml:space="preserve">
<style type="text/css">
	.st0{fill:#4831D4;}
</style>
<g id="Layer_2">
</g>
<g id="Layer_1">
	<path class="st0" d="M446.23,297.73h214.48c71.77,13.72,123.57,77.42,122.39,149.59c-0.29,17.6-3.71,34.6-9.77,50.42
		C751.4,554.98,695.47,592,634.18,592H533.2c41.31-40.24,82.61-80.49,123.92-120.73c1.63-1.59,3.19-3.25,4.54-5.09
		c9-12.33,9.98-28.61,2.45-40.94c-10.45-17.1-31.41-17.02-32.3-17H440.5c-19.37,0-36.21,14.4-38.05,33.69
		c-0.06,0.67-0.11,1.34-0.14,2.01c-0.19,4.35,0.37,8.62,1.58,12.67c4.75,15.89,19.85,26.43,36.44,26.43l94.57,0
		c-41.03,41.03-82.06,82.06-123.09,123.09c-7.52,7.52-11.85,17.79-11.39,28.41c0.2,4.69,1.21,9.82,3.59,15.09
		c0.29,0.65,0.6,1.27,0.91,1.88c6.52,12.63,19.92,20.21,34.14,20.21H778c-6.97,17.06-21.63,46.39-51,73.1
		c-0.22,0.2-0.44,0.4-0.66,0.6c-26.55,23.92-61.2,36.86-96.94,36.86H448.57c-45.64,0-89.42-19.67-118.58-54.79
		c-0.83-1-1.66-2.02-2.48-3.06c-0.81-1.02-1.59-2.05-2.36-3.07c-18.68-24.92-28.28-55.49-28.26-86.64
		c0.07-106.67,0.05-173.05-0.02-215.53c0-0.51,0-0.6,0-0.8c0.18-39.57,20.69-68.42,50.6-89.74
		C376.23,308.16,410.93,297.73,446.23,297.73z"/>
</g>
</svg>
